<?xml version="1.0" encoding="UTF-8" standalone="no"?>
<svg width="512" height="512" viewBox="0 0 512 512" fill="none" xmlns="http://www.w3.org/2000/svg">
  <!-- Gradient and filter definitions -->
  <defs>
    <!-- Enhanced 3D gradients -->
    <linearGradient id="glowGradient" x1="20%" y1="10%" x2="80%" y2="90%">
      <stop offset="0%" stop-color="#8A70FF" stop-opacity="0.7" />
      <stop offset="50%" stop-color="#6C63FF" stop-opacity="0.6" />
      <stop offset="100%" stop-color="#4ECDC4" stop-opacity="0.5" />
    </linearGradient>
    
    <linearGradient id="depthGradient" x1="30%" y1="0%" x2="70%" y2="100%">
      <stop offset="0%" stop-color="#8A70FF" stop-opacity="0.2" />
      <stop offset="100%" stop-color="#4ECDC4" stop-opacity="0.6" />
    </linearGradient>
    
    <linearGradient id="spiralGradient" x1="0%" y1="0%" x2="100%" y2="100%">
      <stop offset="0%" stop-color="#FFFFFF" stop-opacity="0.9" />
      <stop offset="50%" stop-color="#6C63FF" stop-opacity="0.95" />
      <stop offset="100%" stop-color="#4ECDC4" stop-opacity="0.9" />
    </linearGradient>
    
    <radialGradient id="centerGlow" cx="40%" cy="40%" r="60%" fx="40%" fy="40%">
      <stop offset="0%" stop-color="#6C63FF" stop-opacity="0.3" />
      <stop offset="70%" stop-color="#4ECDC4" stop-opacity="0.1" />
      <stop offset="100%" stop-color="#4ECDC4" stop-opacity="0" />
    </radialGradient>
    
    <radialGradient id="sphereHighlight" cx="35%" cy="35%" r="65%" fx="25%" fy="25%">
      <stop offset="0%" stop-color="white" stop-opacity="0.2" />
      <stop offset="100%" stop-color="white" stop-opacity="0" />
    </radialGradient>
    
    <filter id="glow" x="-20%" y="-20%" width="140%" height="140%">
      <feGaussianBlur stdDeviation="3" result="blur" />
      <feComposite in="SourceGraphic" in2="blur" operator="over" />
    </filter>
    
    <filter id="nodeGlow" x="-300%" y="-300%" width="600%" height="600%">
      <feGaussianBlur stdDeviation="2" result="blur" />
      <feComposite in="SourceGraphic" in2="blur" operator="over" />
    </filter>
    
    <filter id="spiralGlow" x="-20%" y="-20%" width="140%" height="140%">
      <feGaussianBlur stdDeviation="2" result="blur" />
      <feComposite in="SourceGraphic" in2="blur" operator="over" />
    </filter>
    
    <!-- Drop shadow for depth -->
    <filter id="dropShadow" x="-20%" y="-20%" width="140%" height="140%">
      <feGaussianBlur in="SourceAlpha" stdDeviation="6" />
      <feOffset dx="4" dy="6" result="offsetblur" />
      <feComponentTransfer>
        <feFuncA type="linear" slope="0.2" />
      </feComponentTransfer>
      <feMerge>
        <feMergeNode />
        <feMergeNode in="SourceGraphic" />
      </feMerge>
    </filter>
  </defs>
  
  <!-- Background ambient glow with shadow -->
  <circle cx="256" cy="256" r="210" fill="url(#centerGlow)" opacity="0.4" filter="url(#dropShadow)" />
  
  <!-- Sphere base with highlight -->
  <circle cx="256" cy="256" r="200" fill="url(#sphereHighlight)" opacity="0.1" />
  
  <!-- Wireframe Sphere with Latitude Lines - More transparent -->
  <g stroke="url(#glowGradient)" fill="none" opacity="0.5" filter="url(#glow)">
    <!-- Horizontal (latitude) lines with perspective -->
    <ellipse cx="256" cy="256" rx="200" ry="30" stroke-width="0.8" transform="rotate(0, 256, 256)" />
    <ellipse cx="256" cy="256" rx="200" ry="58" stroke-width="0.8" transform="rotate(0, 256, 256)" />
    <ellipse cx="256" cy="256" rx="200" ry="85" stroke-width="0.7" transform="rotate(0, 256, 256)" />
    <ellipse cx="256" cy="256" rx="200" ry="112" stroke-width="0.7" transform="rotate(0, 256, 256)" />
    <ellipse cx="256" cy="256" rx="200" ry="138" stroke-width="0.6" transform="rotate(0, 256, 256)" />
    <ellipse cx="256" cy="256" rx="200" ry="165" stroke-width="0.6" transform="rotate(0, 256, 256)" />
    <ellipse cx="256" cy="256" rx="200" ry="190" stroke-width="0.5" transform="rotate(0, 256, 256)" />
    <ellipse cx="256" cy="256" rx="200" ry="200" stroke-width="0.5" transform="rotate(0, 256, 256)" />
  </g>
  
  <!-- Wireframe Sphere with Longitude Lines - More transparent -->
  <g stroke="url(#depthGradient)" fill="none" opacity="0.5" filter="url(#glow)">
    <!-- Vertical (longitude) lines - angled ellipses -->
    <ellipse cx="256" cy="256" rx="200" ry="200" stroke-width="0.8" transform="rotate(0, 256, 256)" />
    <ellipse cx="256" cy="256" rx="200" ry="200" stroke-width="0.7" transform="rotate(20, 256, 256)" />
    <ellipse cx="256" cy="256" rx="200" ry="200" stroke-width="0.7" transform="rotate(40, 256, 256)" />
    <ellipse cx="256" cy="256" rx="200" ry="200" stroke-width="0.6" transform="rotate(60, 256, 256)" />
    <ellipse cx="256" cy="256" rx="200" ry="200" stroke-width="0.6" transform="rotate(80, 256, 256)" />
    <ellipse cx="256" cy="256" rx="200" ry="200" stroke-width="0.5" transform="rotate(100, 256, 256)" />
    <ellipse cx="256" cy="256" rx="200" ry="200" stroke-width="0.5" transform="rotate(120, 256, 256)" />
    <ellipse cx="256" cy="256" rx="200" ry="200" stroke-width="0.6" transform="rotate(140, 256, 256)" />
    <ellipse cx="256" cy="256" rx="200" ry="200" stroke-width="0.6" transform="rotate(160, 256, 256)" />
  </g>
  
  <!-- Spiral line from pole to pole -->
  <g stroke="url(#spiralGradient)" fill="none" stroke-width="2.5" opacity="0.95" filter="url(#spiralGlow)">
    <path d="M 256 56 
             C 346 86, 400 120, 420 170 
             C 440 220, 390 270, 350 300
             C 310 330, 270 350, 240 380
             C 210 410, 200 450, 256 456" 
      stroke-linecap="round" />
  </g>
  
  <!-- Intersection nodes at poles - Brighter for emphasis -->
  <g fill="#6C63FF" filter="url(#nodeGlow)">
    <circle cx="256" cy="56" r="4" opacity="0.95" />
    <circle cx="256" cy="456" r="4" opacity="0.95" />
  </g>
  
  <!-- Essential intersection nodes - More transparent -->
  <g fill="#4ECDC4" filter="url(#nodeGlow)" opacity="0.6">
    <!-- Key nodes with varied sizes and opacities for depth -->
    <circle cx="420" cy="170" r="3" />
    <circle cx="350" cy="300" r="2.5" />
    <circle cx="240" cy="380" r="2.5" />
  </g>
  
  <!-- Text label for CYMASPHERE - All caps -->
  <text x="256" y="512" font-family="Inter, Arial, sans-serif" font-size="0" fill="#FFFFFF" text-anchor="middle" font-weight="bold" opacity="0">CYMASPHERE</text>
</svg> 