<?xml version="1.0" encoding="UTF-8" standalone="no"?>
<svg width="32" height="32" viewBox="0 0 32 32" fill="none" xmlns="http://www.w3.org/2000/svg">
  <!-- Gradient definitions -->
  <defs>
    <!-- Enhanced 3D gradients -->
    <linearGradient id="glowGradient" x1="20%" y1="10%" x2="80%" y2="90%">
      <stop offset="0%" stop-color="#8A70FF" stop-opacity="0.9" />
      <stop offset="50%" stop-color="#6C63FF" stop-opacity="0.8" />
      <stop offset="100%" stop-color="#4ECDC4" stop-opacity="0.7" />
    </linearGradient>
    
    <linearGradient id="depthGradient" x1="30%" y1="0%" x2="70%" y2="100%">
      <stop offset="0%" stop-color="#8A70FF" stop-opacity="0.2" />
      <stop offset="100%" stop-color="#4ECDC4" stop-opacity="0.8" />
    </linearGradient>
    
    <radialGradient id="centerGlow" cx="40%" cy="40%" r="60%" fx="40%" fy="40%">
      <stop offset="0%" stop-color="#6C63FF" stop-opacity="0.5" />
      <stop offset="70%" stop-color="#4ECDC4" stop-opacity="0.2" />
      <stop offset="100%" stop-color="#4ECDC4" stop-opacity="0" />
    </radialGradient>
    
    <radialGradient id="sphereHighlight" cx="35%" cy="35%" r="65%" fx="25%" fy="25%">
      <stop offset="0%" stop-color="white" stop-opacity="0.3" />
      <stop offset="100%" stop-color="white" stop-opacity="0" />
    </radialGradient>
    
    <filter id="glow" x="-30%" y="-30%" width="160%" height="160%">
      <feGaussianBlur stdDeviation="1" result="blur" />
      <feComposite in="SourceGraphic" in2="blur" operator="over" />
    </filter>
    
    <filter id="nodeGlow" x="-300%" y="-300%" width="600%" height="600%">
      <feGaussianBlur stdDeviation="0.7" result="blur" />
      <feComposite in="SourceGraphic" in2="blur" operator="over" />
    </filter>
    
    <!-- Drop shadow for depth -->
    <filter id="dropShadow" x="-30%" y="-30%" width="160%" height="160%">
      <feGaussianBlur in="SourceAlpha" stdDeviation="1.5" />
      <feOffset dx="0.8" dy="1.2" result="offsetblur" />
      <feComponentTransfer>
        <feFuncA type="linear" slope="0.3" />
      </feComponentTransfer>
      <feMerge>
        <feMergeNode />
        <feMergeNode in="SourceGraphic" />
      </feMerge>
    </filter>
  </defs>
  
  <!-- Background ambient glow with shadow -->
  <circle cx="16" cy="16" r="14" fill="url(#centerGlow)" opacity="0.6" filter="url(#dropShadow)" />
  
  <!-- Sphere base with highlight -->
  <circle cx="16" cy="16" r="13" fill="url(#sphereHighlight)" opacity="0.15" />
  
  <!-- Wireframe Sphere with Latitude Lines - Perspective distortion -->
  <g stroke="url(#glowGradient)" fill="none" opacity="0.9" filter="url(#glow)">
    <!-- Horizontal (latitude) lines with perspective -->
    <ellipse cx="16" cy="16" rx="13" ry="3" stroke-width="0.7" />
    <ellipse cx="16" cy="16" rx="13" ry="6" stroke-width="0.6" />
    <ellipse cx="16" cy="16" rx="13" ry="9" stroke-width="0.5" />
    <ellipse cx="16" cy="16" rx="13" ry="12" stroke-width="0.4" />
    <ellipse cx="16" cy="16" rx="13" ry="13" stroke-width="0.3" />
  </g>
  
  <!-- Wireframe Sphere with Longitude Lines - Adjusted for perspective -->
  <g stroke="url(#depthGradient)" fill="none" opacity="0.9" filter="url(#glow)">
    <!-- Vertical (longitude) lines - angled ellipses with varying stroke widths -->
    <ellipse cx="16" cy="16" rx="13" ry="13" stroke-width="0.7" transform="rotate(0, 16, 16)" />
    <ellipse cx="16" cy="16" rx="13" ry="13" stroke-width="0.6" transform="rotate(30, 16, 16)" />
    <ellipse cx="16" cy="16" rx="13" ry="13" stroke-width="0.5" transform="rotate(60, 16, 16)" />
    <ellipse cx="16" cy="16" rx="13" ry="13" stroke-width="0.4" transform="rotate(90, 16, 16)" />
    <ellipse cx="16" cy="16" rx="13" ry="13" stroke-width="0.5" transform="rotate(120, 16, 16)" />
    <ellipse cx="16" cy="16" rx="13" ry="13" stroke-width="0.6" transform="rotate(150, 16, 16)" />
  </g>
  
  <!-- Diagonal Grid for 3D effect - Front (appears closer)-->
  <g stroke="#4ECDC4" stroke-width="0.6" fill="none" opacity="0.9">
    <line x1="10" y1="10" x2="22" y2="22" />
    <line x1="22" y1="10" x2="10" y2="22" />
  </g>
  
  <!-- Additional wireframe mesh structure with depth perspective -->
  <g stroke="#4ECDC4" stroke-width="0.5" fill="none" opacity="0.8">
    <!-- Connection lines for 3D mesh effect - varying opacity for depth -->
    <line x1="16" y1="3" x2="9" y2="9" />
    <line x1="16" y1="3" x2="23" y2="9" />
    <line x1="29" y1="16" x2="23" y2="9" />
    <line x1="29" y1="16" x2="23" y2="23" />
    <line x1="16" y1="29" x2="23" y2="23" />
    <line x1="16" y1="29" x2="9" y2="23" />
    <line x1="3" y1="16" x2="9" y2="23" />
    <line x1="3" y1="16" x2="9" y2="9" />
  </g>
  
  <!-- Intersection nodes with varied opacity and size for depth -->
  <g fill="#6C63FF" filter="url(#nodeGlow)">
    <!-- Main structural nodes -->
    <circle cx="16" cy="3" r="1" opacity="0.95" />
    <circle cx="29" cy="16" r="1" opacity="0.95" />
    <circle cx="16" cy="29" r="1" opacity="0.95" />
    <circle cx="3" cy="16" r="1" opacity="0.95" />
    <circle cx="9" cy="9" r="0.9" opacity="0.9" />
    <circle cx="23" cy="9" r="0.9" opacity="0.9" />
    <circle cx="23" cy="23" r="0.9" opacity="0.9" />
    <circle cx="9" cy="23" r="0.9" opacity="0.9" />
  </g>
  
  <!-- Diagonal cross lines for depth -->
  <g stroke="#4ECDC4" stroke-width="0.3" stroke-dasharray="0.5,1" fill="none" opacity="0.6">
    <line x1="7" y1="12" x2="25" y2="20" />
    <line x1="7" y1="20" x2="25" y2="12" />
    <line x1="12" y1="7" x2="20" y2="25" />
    <line x1="20" y1="7" x2="12" y2="25" />
  </g>
  
  <!-- Secondary intersection nodes with depth -->
  <g fill="#4ECDC4" filter="url(#nodeGlow)">
    <circle cx="12" cy="12" r="0.6" opacity="0.7" />
    <circle cx="20" cy="12" r="0.6" opacity="0.7" />
    <circle cx="20" cy="20" r="0.6" opacity="0.7" />
    <circle cx="12" cy="20" r="0.6" opacity="0.7" />
  </g>
  
  <!-- Bright center node for focal point -->
  <circle cx="16" cy="16" r="1.2" fill="white" opacity="0.8" filter="url(#nodeGlow)" />
  <circle cx="16" cy="16" r="0.8" fill="#6C63FF" opacity="0.9" filter="url(#nodeGlow)" />
</svg> 